# xmcd
#
# Track frame offsets:
#	150
#	14885
#	30632
#	42331
#	54493
#	69569
#	82507
#	90721
#	97333
#	109479
#	118694
#	132428
#	145907
#	162517
#	177619
#	189321
#	205967
#	220768
#	235591
#	250970
#
# Disc length: 3505 seconds
#
# Revision: 1
# Processed by: cddbd v1.5.2PL0 Copyright (c) Steve Scherf et al.
# Submitted via: EasyCDDAExtractor 16.0.8.1
#
DISCID=280daf14
DTITLE=Βασίλης Τσιτσάνης  - Βασίλης Τσιτσάνης 03
DYEAR=2008
DGENRE=ÑåìðÝôéêá
TTITLE0=Σωτηριία Μπέλλου - Χωρισαμε Ενα Δειλινο
TTITLE1=Γιώργος Μαργαρίτης - Κλαψε Σημερα Καρδια Μου
TTITLE2=Γλυκερία - Ομορφη Θεσσαλονικη
TTITLE3=Περικλής Περάκης and Γεωργία Λόγγου - Τι Τα Θες
TTITLE4=Στέλιος Καζαντζίδης  - Αραπινες
TTITLE5=Χαρούλα Λαμπράκη and Λευτέρης Πανταζής - Με Παρεσυρε Το Ρεμα
TTITLE6=Αννα Χρυσάφη - Παλιωσε Το Σακακι Μου
TTITLE7=Αννα Χρυσάφη - Κανε Λιγακι Υπομονη
TTITLE8=Στράτος Παγιουμτζής - Ολα Για Σενα Κουκλα ΜΟυ
TTITLE9=Νίος Γιουλάκης - Στην Καλαμπακα Μια Βραδια
TTITLE10=Αγάθωνας Ιακωβίδης - Το Συρε Κι Ελα Αρχισες
TTITLE11=Αλεξάνδρα and Βασίλης Τσιτσάνης - Πολιορκια
TTITLE12=Μελίνα Κανά - Ζημια
TTITLE13=Στράτος Κύπριος and Ρίτα Σακελλαρίου - Το Κοριτσι Μου Ζηλευει
TTITLE14=Μιχάλης Ντελής - απο Μια Πικρη Κουβεντα
TTITLE15=Ηλίας Μακρής - Η Λαδια
TTITLE16=Μαίρη μΑράντη - Περιπλανωμενη Ζωη
TTITLE17=Μιχάλης Δασκαλάκης - Σε Γιωξαν Απ' την Κοκκινια
TTITLE18=Μαρίκα Νίνου and Βασίλης Τσιτσάνης - Ο Κοκορας
TTITLE19=Στέλιος Καζαντζίδης - Ισως Αυριο
EXTD=
EXTT0=
EXTT1=
EXTT2=
EXTT3=
EXTT4=
EXTT5=
EXTT6=
EXTT7=
EXTT8=
EXTT9=
EXTT10=
EXTT11=
EXTT12=
EXTT13=
EXTT14=
EXTT15=
EXTT16=
EXTT17=
EXTT18=
EXTT19=
PLAYORDER=
